<?xml version="1.0" encoding="UTF-8"?>
<svg version="1.1" viewBox="0 0 2048 2048" width="1280" height="1280" xmlns="http://www.w3.org/2000/svg">
<path transform="translate(0)" d="m0 0h2048v2048h-2048z" fill="#1C1C1C"/>
<path transform="translate(574,335)" d="m0 0 81 1 16 3 14 7 10 9 7 10 6 13 6 21 3 22 2 26v1130l-2 27-2 24-6 23-6 12-8 11-7 7-14 8-13 4-8 1h-78l-1-1z" fill="#1C1C1C"/>
<path transform="translate(534,275)" d="m0 0h125l22 3 12 4 15 8 9 7 11 11 12 20 5 10 7 22 5 26 2 20 1 49v1118l-1 47-2 21-5 27-4 15-6 15-9 17-7 9-8 8-14 10-14 6-21 5-28 1h-106l-2-2-1-166v-1209l1-80zm40 60v1358l1 1h78l16-3 16-8 10-9 6-8 7-12 6-21 2-16 2-22 1-18v-1130l-3-36-4-20-6-18-7-13-11-12-14-8-11-3-8-1z" fill="#737373"/>
<path transform="translate(1050,949)" d="m0 0h27l16 5 7 8 2 5 5 38v19l-2 13-5 17-7 13-9 11-8 5-8 3-9 1-13-2-9-6-9-10-8-15-4-12-2-12-1-16 2-19 3-12 7-14 11-12 5-4z" fill="#737373"/>
<path transform="translate(815,949)" d="m0 0h72l4 15 4 18 7 32 5 22 3 13 8-33 3-14 7-31 5-21 1-1h19l1 4-7 27-9 38-8 32-7 29-3 7-5 1h-12l-4-2-18-74-8-34-4-16-1-1v13l-4 2h-30v30h28l1 1 1 23-1 1h-29v30h31l2 2 1 22-1 2h-52l-1-1v-135z" fill="#737373"/>
<path transform="translate(1276,949)" d="m0 0h19l3 3 15 36 12 29 10 25 1-93h19l1 2v134l-3 2h-18l-3-2-20-50-16-39-1-2-1 92-13 1-6-1-1-3v-131z" fill="#737373"/>
<path transform="translate(1186,949)" d="m0 0h18l1 1v55h36v-55l1-1h18l1 1v135l-5 2h-11l-4-2v-55h-36v55l-5 2h-12l-3-1-1-2v-97l1-37z" fill="#737373"/>
<path transform="translate(1402,949)" d="m0 0h50l2 1v24l-1 1h-29l-2-1v31h27l2 4v19l-1 2h-28v30h31l1 1 1 23-3 3h-48l-3-3v-134z" fill="#737373"/>
<path transform="translate(1118,949)" d="m0 0h61l2 3-1 22-1 1h-20v110l-1 1h-18l-1-111h-19l-2-2z" fill="#737373"/>
<path transform="translate(1464,949)" d="m0 0h19l1 1 1 110h26l1 1 1 24-2 2h-43l-4-2-1-54v-75z" fill="#737373"/>
<path transform="translate(1057,969)" d="m0 0h8l6 8 8 16 4 10 1 13-2 13-4 11-6 8-6 4-7 2-8-1-5-3-8-11-5-13-1-4v-18l3-12 4-10 8-9z" fill="#1C1C1C"/>
<path transform="translate(1369,949)" d="m0 0h18l1 1v135l-5 2h-10l-4-1-1-2v-133z" fill="#737373"/>
<path transform="translate(1051,958)" d="m0 0h14v3l-13 2-9 5-7 8-6 12-3 12v22l4 16 8 15 7 6 7 3h8l10-4 4-4h2l9-18 3-21-1-20 1-1v-5l-6-2-4-7-7-15 1-6 4-1 7 3 6 1 5 6 1 3 2 16 1 5v8h-6l2 8 5 6v8l-3 1-4-2 2 10 3 5-1 7-3 3-3-5v-2h-2l-1 10 2 9-5 8-2-1-1-6-4 1-3 13-4 4h-2v-10h-4l-3 9-2 2h-5l-1-1-1-9-4 1-3 5-4-1-3-3 1-11h-10l-4-7 1-4 1-5-7-6-1-8 3-3v-5l-3-2v-10l3-2-1-13 4-12 6-11 9-9z" fill="#1C1C1C"/>
<path transform="translate(956,1023)" d="m0 0 44 1 1 1v22l-9 1h-35l-2-1v-23z" fill="#737373"/>
<path transform="translate(1084,964)" d="m0 0 4 2 1 2v6h-3l-2-2z" fill="#737373"/>
</svg>
